<svg width="266" height="35" viewBox="0 0 266 35" fill="none" xmlns="http://www.w3.org/2000/svg">
<path d="M37.656 34.16C34.2 34.16 31.704 33.36 30.168 31.76C28.664 30.128 27.912 27.488 27.912 23.84V6.848L17.4 32H15.816L2.952 5.888V32H0.552V0.319999H6.408L18.024 23.888L27.864 0.319999H34.152V23.84C34.152 26.848 34.408 29.056 34.92 30.464C35.432 31.872 36.344 32.704 37.656 32.96V34.16ZM50.7848 32.48C48.5768 32.48 46.6408 31.968 44.9768 30.944C43.3128 29.92 42.0168 28.528 41.0888 26.768C40.1928 24.976 39.7448 22.96 39.7448 20.72C39.7448 18.224 40.1928 16.096 41.0888 14.336C42.0168 12.576 43.2808 11.248 44.8808 10.352C46.4808 9.424 48.2888 8.96 50.3047 8.96C52.2888 8.96 54.0808 9.36 55.6808 10.16C57.2808 10.96 58.5448 12.096 59.4728 13.568C60.4008 15.008 60.8648 16.672 60.8648 18.56C60.8648 19.168 60.8328 19.856 60.7688 20.624L60.6728 21.584H46.2248C46.2248 24.624 46.6888 26.848 47.6168 28.256C48.5448 29.632 49.8408 30.32 51.5048 30.32C53.0408 30.32 54.3208 29.984 55.3448 29.312C56.4008 28.608 57.4088 27.616 58.3688 26.336L59.8568 27.44C58.9288 28.88 57.7608 30.08 56.3528 31.04C54.9768 32 53.1208 32.48 50.7848 32.48ZM54.3848 19.424C54.3848 16.416 54.0328 14.288 53.3288 13.04C52.6248 11.76 51.6168 11.12 50.3047 11.12C49.0888 11.12 48.0968 11.776 47.3288 13.088C46.5928 14.368 46.2248 16.48 46.2248 19.424H54.3848ZM66.2306 15.68C66.2306 14.048 66.0066 12.848 65.5586 12.08C65.1426 11.28 64.2626 10.88 62.9186 10.88H62.4386V9.44H67.1906C68.2786 9.44 69.1266 9.584 69.7346 9.872C70.3746 10.128 70.8706 10.576 71.2226 11.216C72.8546 9.712 75.1906 8.96 78.2306 8.96C81.2706 8.96 83.5426 9.68 85.0466 11.12C86.5826 12.528 87.3506 14.752 87.3506 17.792V32H81.1106V17.744C81.1106 15.536 80.6946 13.92 79.8626 12.896C79.0626 11.872 77.9586 11.36 76.5506 11.36C75.5586 11.36 74.6786 11.504 73.9106 11.792C73.1746 12.048 72.5826 12.4 72.1346 12.848L72.2786 13.52C72.4066 13.904 72.4706 14.528 72.4706 15.392V32H66.2306V15.68ZM102.24 32.48C99.2 32.48 96.96 31.776 95.52 30.368C94.08 28.96 93.36 26.72 93.36 23.648V15.68C93.36 14.048 93.136 12.848 92.688 12.08C92.24 11.28 91.344 10.88 90 10.88H89.52V9.44H95.28C96.432 9.44 97.312 9.632 97.92 10.016C98.528 10.4 98.96 11.04 99.216 11.936C99.472 12.8 99.6 14.048 99.6 15.68V23.696C99.6 26.096 99.936 27.808 100.608 28.832C101.28 29.824 102.304 30.32 103.68 30.32C104.864 30.32 105.936 29.808 106.896 28.784C107.248 28.432 107.616 27.904 108 27.2V9.44H114.24V32H110.16L108.48 29.84H108.24C107.792 30.32 107.264 30.768 106.656 31.184C105.44 32.048 103.968 32.48 102.24 32.48ZM157.797 34.16C154.341 34.16 151.845 33.36 150.309 31.76C148.805 30.128 148.053 27.488 148.053 23.84V6.848L137.541 32H135.957L123.093 5.888V32H120.693V0.319999H126.549L138.165 23.888L148.005 0.319999H154.293V23.84C154.293 26.848 154.549 29.056 155.061 30.464C155.573 31.872 156.485 32.704 157.797 32.96V34.16ZM167.943 32.48C165.351 32.48 163.335 31.904 161.895 30.752C160.487 29.568 159.783 27.984 159.783 26C159.783 24.4 160.151 23.072 160.887 22.016C161.655 20.96 162.983 20.16 164.871 19.616C166.759 19.072 169.383 18.8 172.743 18.8H173.463C173.463 16.016 173.079 14.048 172.311 12.896C171.543 11.712 170.407 11.12 168.903 11.12C167.655 11.12 166.631 11.424 165.831 12.032C165.031 12.64 164.455 13.776 164.103 15.44H161.463C161.463 14.352 161.527 13.424 161.655 12.656C161.815 11.888 162.151 11.216 162.663 10.64C163.655 9.52 166.055 8.96 169.863 8.96C173.063 8.96 175.495 9.808 177.159 11.504C178.855 13.168 179.703 15.68 179.703 19.04V32H175.623L173.943 29.84H173.703C173.415 30.288 172.967 30.736 172.359 31.184C171.271 32.048 169.799 32.48 167.943 32.48ZM169.383 30.08C170.055 30.08 170.631 29.952 171.111 29.696C171.591 29.408 172.055 29.024 172.503 28.544C172.919 28.096 173.239 27.568 173.463 26.96V20.96H172.743C170.471 20.96 168.823 21.376 167.799 22.208C166.775 23.008 166.263 24.272 166.263 26C166.263 27.312 166.535 28.32 167.079 29.024C167.623 29.728 168.391 30.08 169.383 30.08ZM193.195 32.48C189.451 32.48 186.875 31.824 185.467 30.512C184.955 30.032 184.635 29.36 184.507 28.496C184.379 27.6 184.315 26.368 184.315 24.8H185.995C186.283 26.464 186.939 27.808 187.963 28.832C188.987 29.824 190.411 30.32 192.235 30.32C195.435 30.32 197.035 29.232 197.035 27.056C197.035 26.224 196.683 25.536 195.979 24.992C195.307 24.448 194.219 23.84 192.715 23.168L190.219 22.112C188.171 21.216 186.635 20.24 185.611 19.184C184.587 18.128 184.075 16.848 184.075 15.344C184.075 13.328 184.907 11.76 186.571 10.64C188.267 9.52 190.475 8.96 193.195 8.96C196.939 8.96 199.515 9.616 200.923 10.928C201.435 11.408 201.755 12.08 201.883 12.944C202.011 13.808 202.075 15.04 202.075 16.64H200.395C200.107 14.976 199.451 13.648 198.427 12.656C197.403 11.632 195.979 11.12 194.155 11.12C192.779 11.12 191.755 11.424 191.083 12.032C190.411 12.608 190.075 13.392 190.075 14.384C190.075 15.184 190.347 15.856 190.891 16.4C191.467 16.912 192.331 17.424 193.483 17.936L196.363 19.136C198.731 20.128 200.427 21.136 201.451 22.16C202.507 23.152 203.035 24.464 203.035 26.096C203.035 28.144 202.123 29.728 200.299 30.848C198.507 31.936 196.139 32.48 193.195 32.48ZM215.504 32.48C213.296 32.48 211.584 31.888 210.368 30.704C209.152 29.488 208.544 27.744 208.544 25.472V11.6H205.664V9.44H208.544V5.12L210.944 2.24H214.784V9.44H220.064V11.6H214.784V25.76C214.784 27.488 214.992 28.688 215.408 29.36C215.824 30 216.448 30.32 217.28 30.32C218.176 30.32 219.072 30.112 219.968 29.696C220.32 29.504 220.688 29.28 221.072 29.024L221.744 30.368C221.328 30.72 220.832 31.072 220.256 31.424C218.912 32.128 217.328 32.48 215.504 32.48ZM234.441 32.48C232.233 32.48 230.297 31.968 228.633 30.944C226.969 29.92 225.673 28.528 224.745 26.768C223.849 24.976 223.401 22.96 223.401 20.72C223.401 18.224 223.849 16.096 224.745 14.336C225.673 12.576 226.937 11.248 228.537 10.352C230.137 9.424 231.945 8.96 233.961 8.96C235.945 8.96 237.737 9.36 239.337 10.16C240.937 10.96 242.201 12.096 243.129 13.568C244.057 15.008 244.521 16.672 244.521 18.56C244.521 19.168 244.489 19.856 244.425 20.624L244.329 21.584H229.881C229.881 24.624 230.345 26.848 231.273 28.256C232.201 29.632 233.497 30.32 235.161 30.32C236.697 30.32 237.977 29.984 239.001 29.312C240.057 28.608 241.065 27.616 242.025 26.336L243.513 27.44C242.585 28.88 241.417 30.08 240.009 31.04C238.633 32 236.777 32.48 234.441 32.48ZM238.041 19.424C238.041 16.416 237.689 14.288 236.985 13.04C236.281 11.76 235.273 11.12 233.961 11.12C232.745 11.12 231.753 11.776 230.985 13.088C230.249 14.368 229.881 16.48 229.881 19.424H238.041ZM264.335 9.92C264.911 10.336 265.327 10.8 265.583 11.312C265.839 11.792 265.967 12.048 265.967 12.08L263.519 13.952C263.295 13.664 263.007 13.36 262.655 13.04C261.951 12.4 261.135 12.08 260.207 12.08C258.351 12.08 256.927 12.576 255.935 13.568L256.031 14.288C256.095 14.864 256.127 15.392 256.127 15.872V32H249.887V15.68C249.887 14.048 249.663 12.848 249.215 12.08C248.799 11.28 247.919 10.88 246.575 10.88H246.095V9.44H250.847C251.935 9.44 252.783 9.584 253.391 9.872C254.031 10.128 254.527 10.576 254.879 11.216C256.607 9.712 258.623 8.96 260.927 8.96C262.303 8.96 263.439 9.28 264.335 9.92Z" fill="#9F5C5C"/>
</svg>
